# xmcd
#
# Track frame offsets:
#	150
#	17262
#	37737
#	55072
#	73112
#	91670
#	113385
#	134225
#	149787
#	166875
#	187315
#	204562
#	222537
#	241027
#	262687
#	283492
#
# Disc length: 3987 seconds
#
# Revision: 0
# Processed by: cddbd v1.5.1PL2 Copyright (c) Steve Scherf et al.
# Submitted via: audiograbber 1.83.01
#
DISCID=eb0f9110
DTITLE=Sound Choice - sc2131
DYEAR=1900
DGENRE=Karaoke Country
TTITLE0=Iglesias, Julio and Nelson, Willie - To All The Girls I've Loved Before
TTITLE1=Milsap, Ronnie - Lost In The Fifties Tonight
TTITLE2=Alabama - When We Make Love
TTITLE3=Rogers, Kenny - Lucille
TTITLE4=Alabama - Feels So Right
TTITLE5=Rogers, Kenny - Through The Years
TTITLE6=Whitley, Keith - Don't Close Your Eyes
TTITLE7=Denver, John - Take Me Home Country Roads
TTITLE8=Iglesias, Julio - To All The Girls I've Loved Before (Vocal)
TTITLE9=Milsap. Ronnie - Lost In The Fifties Tonight (Vocal)
TTITLE10=Alabama - When We Make Love (Vocal)
TTITLE11=Rogers, Kenny - Lucille (Vocal)
TTITLE12=Alabama - Feels So Right (Vocal)
TTITLE13=Rogers, Kenny - Through The Years (Vocal)
TTITLE14=Whitley, Keith - Don't Close Your Eyes (Vocal)
TTITLE15=Denver, John - Take Ma Home Country Roads (Vocal)
EXTD=
EXTT0=
EXTT1=
EXTT2=
EXTT3=
EXTT4=
EXTT5=
EXTT6=
EXTT7=
EXTT8=
EXTT9=
EXTT10=
EXTT11=
EXTT12=
EXTT13=
EXTT14=
EXTT15=
PLAYORDER=
